<svg width="32" height="32" viewBox="0 0 32 32" fill="none" xmlns="http://www.w3.org/2000/svg">
  <!-- Dark ocean background -->
  <rect width="32" height="32" rx="6" fill="#000A14"/>
  <!-- Skull head -->
  <ellipse cx="16" cy="13" rx="9" ry="10" fill="#00d4ff" opacity="0.15"/>
  <ellipse cx="16" cy="13" rx="9" ry="10" fill="none" stroke="#00d4ff" stroke-width="1.5"/>
  <!-- Eye sockets -->
  <ellipse cx="12" cy="12" rx="2.5" ry="3" fill="#000A14"/>
  <ellipse cx="20" cy="12" rx="2.5" ry="3" fill="#000A14"/>
  <!-- Glowing eyes -->
  <ellipse cx="12" cy="12" rx="1.5" ry="1.8" fill="#00d4ff" opacity="0.8"/>
  <ellipse cx="20" cy="12" rx="1.5" ry="1.8" fill="#00d4ff" opacity="0.8"/>
  <!-- Nose cavity -->
  <path d="M15 16 L16 17.5 L17 16" fill="#000A14" stroke="#00d4ff" stroke-width="0.8" stroke-linejoin="round"/>
  <!-- Teeth -->
  <rect x="10" y="20" width="3" height="3" rx="0.5" fill="#000A14" stroke="#00d4ff" stroke-width="0.8"/>
  <rect x="14.5" y="20" width="3" height="3" rx="0.5" fill="#000A14" stroke="#00d4ff" stroke-width="0.8"/>
  <rect x="19" y="20" width="3" height="3" rx="0.5" fill="#000A14" stroke="#00d4ff" stroke-width="0.8"/>
  <!-- Jaw line -->
  <path d="M7 19 Q7 23 10 24 Q16 26 22 24 Q25 23 25 19" fill="none" stroke="#00d4ff" stroke-width="1.5" stroke-linecap="round"/>
  <!-- Glow effect -->
  <ellipse cx="12" cy="12" rx="1" ry="1.2" fill="white" opacity="0.5"/>
  <ellipse cx="20" cy="12" rx="1" ry="1.2" fill="white" opacity="0.5"/>
</svg>
